<svg width="80" height="24" viewBox="0 0 80 24" fill="none" xmlns="http://www.w3.org/2000/svg">
<path d="M12.9695 11.6693C14.7007 11.083 15.9913 9.35228 15.9913 7.2108C15.9913 3.98296 13.7026 1.60742 9.65445 1.60742H0V22.4061H10.212C14.1129 22.4061 16.636 19.9717 16.636 16.5981C16.636 14.0164 14.9936 12.1683 12.9695 11.6693ZM3.98964 5.01081H9.00822C10.9752 5.01081 12.0016 6.00704 12.0016 7.59243C12.0016 9.17636 10.8866 10.2027 9.03839 10.2027H3.98964V5.01081ZM9.44873 19.0325H3.98964V13.5476H9.50725C11.5313 13.5476 12.5879 14.6914 12.5879 16.3338C12.5879 18.0061 11.4143 19.0325 9.44873 19.0325Z" fill="white"></path>
<path d="M53.7142 15.365L45.0604 1.60645H40.0156V22.4066H44.0642V7.65033L53.51 22.4066H57.7628V1.60645H53.7142V15.365Z" fill="white"></path>
<path d="M27.3857 17.0674L22.0004 1.6199L19.168 6.04314L25.2145 22.4066H29.3815L37.0962 1.60645H32.8136L27.3857 17.0674Z" fill="white"></path>
<path d="M78.8713 1.60645H73.9789L65.413 11.8896V1.60645H61.3594V22.4066H65.413V12.1233L73.9789 22.4066H78.8713L70.1142 12.0063L78.8713 1.60645Z" fill="white"></path>
</svg>