<svg width="109" height="32" viewBox="0 0 109 32" fill="none" xmlns="http://www.w3.org/2000/svg">
<g clip-path="url(#clip0_262_10388)">
<path d="M17.4057 15.558C19.714 14.7762 21.4348 12.4686 21.4348 9.61326C21.4348 5.30948 18.3832 2.14209 12.9857 2.14209H0.113068V29.8737H13.7291C18.9303 29.8737 22.2944 26.6278 22.2944 22.1297C22.2944 18.6874 20.1045 16.2233 17.4057 15.558ZM5.43259 6.67994H12.124C14.7467 6.67994 16.1152 8.00825 16.1152 10.1221C16.1152 12.234 14.6285 13.6025 12.1643 13.6025H5.43259V6.67994ZM12.7114 25.3756H5.43259V18.0624H12.7894C15.4881 18.0624 16.8969 19.5874 16.8969 21.7773C16.8969 24.007 15.3321 25.3756 12.7114 25.3756Z" fill="black"/>
<path d="M71.7303 20.4864L60.1919 2.1416H53.4655V29.8752H58.8636V10.2001L71.458 29.8752H77.1284V2.1416H71.7303V20.4864Z" fill="black"/>
<path d="M36.6272 22.7562L29.4468 2.15953L25.6703 8.05719L33.7323 29.8752H39.2883L49.5745 2.1416H43.8644L36.6272 22.7562Z" fill="black"/>
<path d="M105.273 2.1416H98.7497L87.3285 15.8525V2.1416H81.9237V29.8752H87.3285V16.1641L98.7497 29.8752H105.273L93.5968 16.0081L105.273 2.1416Z" fill="black"/>
</g>
<defs>
<clipPath id="clip0_262_10388">
<rect width="108" height="32" fill="white" transform="translate(0.113068)"/>
</clipPath>
</defs>
</svg>
