<svg width="256" height="256" viewBox="0 0 256 256" fill="none" xmlns="http://www.w3.org/2000/svg">
<rect width="256" height="256" fill="#1C2127"/>
<g clip-path="url(#clip0_267_545)">
<path d="M66.9264 127.222C70.9215 125.869 73.8997 121.875 73.8997 116.933C73.8997 109.485 68.6182 104.003 59.2764 104.003H36.9971V151.999H60.563C69.565 151.999 75.3875 146.382 75.3875 138.596C75.3875 132.639 71.5974 128.374 66.9264 127.222ZM46.2038 111.857H57.7851C62.3242 111.857 64.6928 114.156 64.6928 117.814C64.6928 121.469 62.1198 123.838 57.8547 123.838H46.2038V111.857ZM58.8016 144.214H46.2038V131.557H58.9367C63.6075 131.557 66.0458 134.196 66.0458 137.986C66.0458 141.846 63.3375 144.214 58.8016 144.214Z" fill="white"/>
<path d="M160.949 135.751L140.979 104.001H129.337V152.001H138.68V117.948L160.478 152.001H170.292V104.001H160.949V135.751Z" fill="white"/>
<path d="M100.194 139.68L87.7667 104.032L81.2305 114.239L95.1838 152.001H104.8L122.603 104.001H112.72L100.194 139.68Z" fill="white"/>
<path d="M219.004 104.001H207.713L187.946 127.731V104.001H178.592V152.001H187.946V128.27L207.713 152.001H219.004L198.795 128L219.004 104.001Z" fill="white"/>
</g>
<defs>
<clipPath id="clip0_267_545">
<rect width="182.006" height="48" fill="white" transform="translate(36.9971 104)"/>
</clipPath>
</defs>
</svg>
