<svg width="247" height="41" viewBox="0 0 247 41" fill="none" xmlns="http://www.w3.org/2000/svg">
<g clip-path="url(#clip0_482_34924)">
<path d="M57.488 20.212C57.488 25.08 61.124 28.328 65.532 28.328C67.924 28.3331 70.2702 27.6725 72.308 26.42V31.148C71.392 31.716 68.64 32.748 65.568 32.748C58.4 32.736 52.724 27.3 52.724 20.212C52.724 13.124 58.4 7.7 65.568 7.7C68.64 7.7 71.392 8.724 72.308 9.3V14C70.2685 12.7523 67.9229 12.0946 65.532 12.1C61.124 12.1 57.488 15.344 57.488 20.212ZM93.4 20.5V32.384H89V21.904C89 19.824 88.08 18.272 85.716 18.272C83.424 18.272 82.084 19.716 82.084 22.328V32.384H77.684V6.628H82.084V17.672C82.4 16.872 83.636 14.388 87.34 14.388C91.144 14.388 93.4 16.648 93.4 20.5ZM117.324 28.68V32.384H111.644C111.552 32.3896 111.459 32.3759 111.372 32.3438C111.285 32.3117 111.206 32.2619 111.14 32.1976C111.073 32.1333 111.021 32.0559 110.986 31.9702C110.95 31.8845 110.934 31.7925 110.936 31.7V28.54C110.336 30.62 108.716 32.736 105.336 32.736C100.748 32.736 97.432 29.316 97.432 23.564C97.432 17.74 101.064 14.388 105.58 14.388C109.744 14.388 110.592 17.812 110.592 17.812V14.744H114.992V28.68H117.324ZM110.724 23.6C110.724 20.284 109.124 18.2 106.492 18.2C103.952 18.2 102.012 20.072 102.012 23.564C102.012 27.056 103.612 28.928 106.28 28.928C108.996 28.928 110.724 27.164 110.724 23.6ZM127.424 15.448V32.384H123.024V18.448H119.824V14.744H126.736C126.829 14.7411 126.921 14.7574 127.006 14.792C127.092 14.8266 127.17 14.8786 127.235 14.9448C127.299 15.011 127.35 15.0899 127.382 15.1765C127.415 15.2631 127.429 15.3556 127.424 15.448ZM127.284 11.072H122.52V6.628H127.284V11.072ZM132.564 14.744H136.904V17.884C137.048 17.424 138.104 14.388 142.232 14.388C146.044 14.388 148.304 16.648 148.304 20.492V32.384H143.904V21.904C143.904 19.824 142.988 18.272 140.624 18.272C138.328 18.272 136.988 19.716 136.988 22.328V32.384H132.588L132.564 14.744ZM172.224 28.68V32.384H166.544C166.452 32.3896 166.359 32.3759 166.272 32.3438C166.185 32.3117 166.106 32.2619 166.04 32.1976C165.973 32.1333 165.921 32.0559 165.886 31.9702C165.85 31.8845 165.834 31.7925 165.836 31.7V28.54C165.236 30.62 163.616 32.736 160.236 32.736C155.648 32.736 152.332 29.316 152.332 23.564C152.332 17.74 155.964 14.388 160.484 14.388C164.648 14.388 165.492 17.812 165.492 17.812V14.744H169.892V28.68H172.224ZM165.624 23.6C165.624 20.284 164.024 18.2 161.392 18.2C158.852 18.2 156.912 20.072 156.912 23.564C156.912 27.056 158.532 28.928 161.2 28.928C163.896 28.928 165.624 27.164 165.624 23.6ZM181.224 7.7V32.384H176.8V10.332H174.048V6.628H180.152C180.293 6.62639 180.433 6.65302 180.564 6.70632C180.695 6.75963 180.814 6.83853 180.914 6.9384C181.013 7.03826 181.092 7.15708 181.146 7.28787C181.199 7.41865 181.226 7.55878 181.224 7.7ZM189.148 40.5H184.748V36.796H188C189.164 36.796 189.696 36.444 190.116 35.384L191.424 32.068L184.632 14.744H189.536L193.664 27.196L197.936 14.744H202.84L194.16 37.076C193.244 39.44 191.724 40.5 189.148 40.5ZM205.284 31.256V26.988C205.884 27.388 208.316 28.988 211.036 28.988C213.116 28.988 214.032 28.388 214.032 27.224C214.032 23.732 205.036 26.308 205.036 19.676C205.036 16.676 207.576 14.38 212.236 14.38C214.808 14.38 216.636 15.052 217.352 15.476V19.7C216.468 19.132 214.704 18.004 212.304 18.004C210.224 18.004 209.448 18.64 209.448 19.628C209.448 22.484 218.408 20.508 218.408 27.004C218.408 30.532 215.48 32.752 211.208 32.752C208.4 32.736 206.096 31.784 205.284 31.256ZM228.96 15.448V32.384H224.56V18.448H221.36V14.744H228.276C228.368 14.741 228.46 14.7574 228.546 14.792C228.632 14.8266 228.709 14.8787 228.773 14.945C228.838 15.0112 228.888 15.0902 228.92 15.1768C228.952 15.2634 228.966 15.3558 228.96 15.448ZM228.82 11.072H224.056V6.628H228.82V11.072ZM233.676 31.256V26.988C234.272 27.388 236.708 28.988 239.424 28.988C241.508 28.988 242.424 28.388 242.424 27.224C242.424 23.732 233.428 26.308 233.428 19.676C233.428 16.676 235.968 14.38 240.628 14.38C243.204 14.38 245.028 15.052 245.744 15.476V19.7C244.268 18.6469 242.512 18.0565 240.7 18.004C238.616 18.004 237.84 18.64 237.84 19.628C237.84 22.484 246.804 20.508 246.804 27.004C246.804 30.532 243.876 32.752 239.604 32.752C236.8 32.736 234.484 31.784 233.676 31.256Z" fill="black"/>
<path d="M20.0001 0.5C20.4481 0.5 20.9561 0.556 20.9561 0.556C19.453 2.35875 18.5472 4.584 18.3641 6.924C15.532 7.39777 12.9247 8.76194 10.9207 10.8184C8.91672 12.8749 7.62043 15.5166 7.22006 18.36C4.63206 18.64 1.70406 19.824 0.0200564 21.516C-0.379944 9.908 8.51606 0.5 20.0001 0.5ZM22.8801 35.372C22.3503 35.4503 21.8155 35.4891 21.2801 35.488C20.3558 35.4769 19.4336 35.4008 18.5201 35.26C17.8064 36.9784 16.8646 38.5929 15.7201 40.06C12.1301 39.2683 8.82781 37.5024 6.17594 34.9564C3.52408 32.4104 1.62525 29.1827 0.688057 25.628C2.49206 23.488 6.66006 22.248 9.24806 22.248C14.7681 22.248 17.6961 25.176 18.7121 29.74C15.3881 28.84 13.4161 26.98 12.1201 24.22C11.3627 23.945 10.5617 23.8095 9.75606 23.82C9.02904 23.817 8.30635 23.9319 7.61606 24.16C9.08006 29.74 14.4881 33.908 21.0761 33.908C27.1601 33.908 29.7481 30.812 29.7481 30.812V26.076C29.7481 26.076 26.7641 29.176 23.0481 29.796C22.63 26.9028 21.2839 24.2235 19.2122 22.1612C17.1405 20.0988 14.4551 18.7649 11.5601 18.36C12.5161 13.628 16.1201 10.98 21.0201 10.98C25.9201 10.98 29.8641 14.528 29.8641 14.528V9.852C29.8641 9.852 27.3281 7.484 22.8241 6.98C22.9361 4.9 24.2881 2.304 25.7521 1.344C31.8881 3.26 37.8041 8.444 39.4921 15.992C39.4921 15.992 36.7881 18.696 31.7201 18.696C27.5521 18.696 24.9201 16.612 23.4401 12.952C22.6637 12.6755 21.8441 12.54 21.0201 12.552C20.251 12.5436 19.4872 12.6792 18.7681 12.952C20.4001 18.812 25.5681 22.752 31.3281 22.752C36.9601 22.752 40.0001 20.164 40.0001 20.164C40.0001 31.88 31.0441 40.276 20.4001 40.5C21.6401 39.3 22.5961 36.668 22.8801 35.372Z" fill="black"/>
</g>
<defs>
<clipPath id="clip0_482_34924">
<rect width="246.8" height="40" fill="white" transform="translate(0 0.5)"/>
</clipPath>
</defs>
</svg>
