<svg width="174" height="41" viewBox="0 0 174 41" fill="none" xmlns="http://www.w3.org/2000/svg">
<g clip-path="url(#clip0_482_34923)">
<path d="M20.4542 11.9546C19.6913 15.5115 16.8431 18.0407 11.4566 18.0407C5.22754 18.0407 2.10097 14.055 2.10097 9.25832C2.10097 4.65272 5.17939 0.5 11.6718 0.5C17.3757 0.5 20.0494 3.45956 20.4782 6.48984H14.9894C14.8147 5.76179 14.3761 5.12445 13.7585 4.70114C13.1409 4.27784 12.3883 4.09868 11.6462 4.19833C9.08836 4.19833 7.85158 6.20397 7.85158 9.13946C7.85158 11.8116 8.85365 14.2942 11.6703 14.2942C13.217 14.4778 14.6554 13.4712 15.012 11.9546H20.4542ZM41.5488 9.23425C41.5488 13.9602 38.3981 18.0407 31.811 18.0407C25.7504 18.0407 22.4087 14.1739 22.4087 9.25832C22.4087 4.62864 25.6541 0.5 32.0502 0.5C38.1123 0.5 41.5488 4.46163 41.5488 9.23425ZM28.1578 9.16353C28.1578 12.099 29.3268 14.2461 32.0697 14.2461C34.9104 14.2461 35.7937 11.7876 35.7937 9.25832C35.7937 6.34691 34.7675 4.19833 31.9268 4.19833C29.2336 4.19833 28.1608 6.41762 28.1608 9.16353H28.1578ZM60.2811 12.0027L60.4722 4.15168H60.4241L56.8446 17.6601H52.3804L49.135 4.10504H49.0869L49.3983 12.1953V17.6616H44.5294V0.88217H52.3338L54.9578 11.598H54.9819L57.8226 0.88217H65.6029V17.6585H60.2811V12.0027ZM69.5631 0.88217H78.9894C83.0233 0.88217 85.8429 2.88932 85.8429 6.34992C85.8429 9.90681 83.1933 11.9576 79.018 11.9576H74.9797V17.6616H69.5631V0.88217ZM74.9797 8.28033H78.1544C79.6108 8.28033 80.47 7.67848 80.47 6.39505C80.47 5.32076 79.826 4.55642 78.1544 4.55642H74.9797V8.28033ZM88.3195 0.88217H93.7858V13.7691H102.783L102.139 17.6585H88.3195V0.88217ZM106.408 17.6585V11.8357C106.409 11.5992 106.324 11.3704 106.169 11.1917L99.416 0.88217H105.812L109.392 7.61228C110.203 5.89402 111.682 3.41292 113.043 0.88217H118.911L112.013 11.3588C111.913 11.5317 111.871 11.7321 111.894 11.9305V17.6585H106.408ZM7.47242 36.9928L6.39813 40.1163H0.931885L7.27983 23.3399H14.3921L21.1448 40.1163H15.2994L14.1544 36.9898L7.47242 36.9928ZM12.889 33.1034L10.7404 26.784H10.6456C10.2875 28.1682 9.54727 30.5545 8.63999 33.1034H12.889ZM22.9578 23.3415H31.4498C37.5104 23.3415 40.5663 27.0398 40.5663 31.4558C40.5663 36.6347 36.7716 40.1193 31.4017 40.1193H22.9578V23.3415ZM28.4 36.3548H30.7622C33.4585 36.3548 34.8247 34.7313 34.8247 31.5822C34.8247 29.0048 33.7504 27.1195 30.7622 27.0955H28.4V36.3548ZM47.7011 40.1163L41.1636 23.3399H47.1053L49.5638 30.863C50.1744 32.6403 50.6917 34.4483 51.1136 36.2796H51.1617C51.6357 34.3657 52.2089 32.4774 52.88 30.6238L55.1715 23.3445H61.0184L54.3635 40.1163H47.7011ZM65.6737 36.9928L64.6024 40.1163H59.1346L65.4826 23.3399H72.5949L79.3475 40.1163H73.5006L72.3556 36.9898L65.6737 36.9928ZM71.0902 33.1034L68.9417 26.784H68.8469C68.4888 28.1682 67.7485 30.5545 66.8412 33.1034H71.0902ZM81.1606 40.1163V23.3415H87.51L93.5721 33.6977H93.6669C93.4999 32.0998 93.524 29.068 93.524 26.2995V23.3415H98.4154V40.1163H92.4256L85.9814 28.5895H85.9106C86.0611 30.4989 86.0776 32.7422 86.0776 36.0358V40.1163H81.1606ZM106.306 27.2068H100.739V23.3415H117.255V27.2068H111.752V40.1163H106.306V27.2068ZM122.182 36.9928L121.112 40.1163H115.646L121.994 23.3399H129.106L135.858 40.1163H130.011L128.864 36.9898L122.182 36.9928ZM127.599 33.1034L125.45 26.784H125.355C124.997 28.1682 124.257 30.5545 123.351 33.1034H127.599ZM154.731 40.1178H150.985C150.839 39.6168 150.728 39.1052 150.651 38.5891C149.577 39.7823 148.168 40.4985 145.084 40.4985C142.756 40.655 140.475 39.7958 138.829 38.1453C137.183 36.4947 136.33 34.2107 136.493 31.8831C136.493 27.1105 139.524 22.9578 146.134 22.9578C151.456 22.9578 154.248 25.654 154.749 28.4707H149.295C148.835 27.1511 147.505 26.3416 146.121 26.5387C143.281 26.5387 142.255 28.8784 142.255 31.5987C142.255 34.5583 143.424 36.8242 146.241 36.8242C148.627 36.8242 149.486 35.4701 149.486 34.1761V34.0076H146.193V30.3334H154.736L154.731 40.1178ZM172.582 33.4359H163.609V36.2525H173.632L173.011 40.1163H158.236V23.3415H173.056V27.2068H163.606V29.5465H172.579L172.582 33.4359Z" fill="black"/>
</g>
<defs>
<clipPath id="clip0_482_34923">
<rect width="172.7" height="40" fill="white" transform="translate(0.931885 0.5)"/>
</clipPath>
</defs>
</svg>
