<svg width="22" height="24" viewBox="0 0 22 24" fill="none" xmlns="http://www.w3.org/2000/svg">
<path d="M13.6103 0.0849609H11.4029H6.53724C5.75395 0.0849609 5.06565 0.654591 4.94696 1.43788L4.44855 4.64207V4.66586H2.07498C1.43417 4.66586 0.935685 5.18806 0.935685 5.80516C0.935685 6.44596 1.45788 6.94445 2.07498 6.96815H4.09247L3.73646 9.17554L3.71276 9.34165H1.33918C0.698378 9.34165 0.19989 9.86384 0.19989 10.4809C0.19989 11.098 0.722083 11.6202 1.33918 11.6202H3.35667L2.26487 18.5272L1.90887 20.8295L1.71898 22.0638C1.57657 23.0369 2.31237 23.9151 3.30926 23.9151H4.82826H6.91695H8.62593C9.40914 23.9151 10.0737 23.3455 10.2161 22.5622L11.2368 16.2249H11.8301H13.729C18.2149 16.2249 21.8702 12.5222 21.799 8.01254C21.7278 3.57407 18.025 0.0849609 13.6103 0.0849609ZM6.41855 6.96815L13.5865 6.99186C14.2274 6.99186 14.7733 7.51405 14.7733 8.17865C14.7733 8.81954 14.2511 9.36544 13.5865 9.36544H6.03876L6.41855 6.96815ZM13.634 13.8988H12.4235H11.8539H10.6434C9.86013 13.8988 9.19554 14.4685 9.05314 15.2517L8.03254 21.6128H4.13996L5.68275 11.644H13.5865C15.5091 11.644 17.0519 10.0774 17.0519 8.17865C17.0519 6.27985 15.4854 4.71336 13.5865 4.71336L6.79826 4.68957L7.15434 2.41098H13.7527C16.9807 2.41098 19.5916 5.06936 19.5204 8.29734C19.4254 11.4303 16.7908 13.8988 13.634 13.8988Z" fill="black"/>
</svg>
