<svg width="32" height="32" viewBox="0 0 32 32" fill="none" xmlns="http://www.w3.org/2000/svg">
<rect width="32" height="32" rx="2" fill="#2C6FF2"/>
<g clip-path="url(#clip0_1685_8)">
<path d="M19.5781 15.7408C20.9098 15.2898 21.9025 13.9584 21.9025 12.3111C21.9025 9.82821 20.142 8.00089 17.0281 8.00089H9.60164V23.9998H17.457C20.4576 23.9998 22.3984 22.1272 22.3984 19.5321C22.3984 17.5462 21.1351 16.1246 19.5781 15.7408ZM12.6706 10.6189H16.531C18.044 10.6189 18.8336 11.3852 18.8336 12.6047C18.8336 13.8231 17.9759 14.6126 16.5542 14.6126H12.6706V10.6189ZM16.8698 21.4047H12.6706V17.1856H16.9148C18.4718 17.1856 19.2846 18.0654 19.2846 19.3288C19.2846 20.6152 18.3818 21.4047 16.8698 21.4047Z" fill="white"/>
</g>
<defs>
<clipPath id="clip0_1685_8">
<rect width="13.0001" height="16" fill="white" transform="translate(9.5 8)"/>
</clipPath>
</defs>
</svg>
