<svg width="18" height="22" viewBox="0 0 18 22" fill="none" xmlns="http://www.w3.org/2000/svg">
<path fill-rule="evenodd" clip-rule="evenodd" d="M4.25 4.67704L2.33 0.835039L3.67 0.165039L5 2.82304L6.33 0.165039L7.67 0.835039L5.75 4.67704V8.00004H4.25V4.67704ZM10.75 2.00004V6.25004C10.75 6.91704 10.968 7.41004 11.348 7.71204C11.5584 7.87901 11.8141 7.97899 12.082 7.99904H12.108L12.119 8.00004H12.124H12.126H12.128C12.36 8.00004 12.571 7.93604 12.75 7.85204V8.00004H14.25V2.00004H12.75V5.74004L12.749 5.74404C12.7365 5.78961 12.7187 5.83357 12.696 5.87504C12.644 5.97704 12.563 6.09504 12.463 6.20704C12.4004 6.27748 12.3318 6.34238 12.258 6.40104C12.2524 6.35091 12.2497 6.30049 12.25 6.25004V2.00004H10.75ZM6.75 3.75004C6.75 3.28591 6.93437 2.84079 7.26256 2.5126C7.59075 2.18441 8.03587 2.00004 8.5 2.00004C8.96413 2.00004 9.40925 2.18441 9.73744 2.5126C10.0656 2.84079 10.25 3.28591 10.25 3.75004V6.25004C10.25 6.71417 10.0656 7.15929 9.73744 7.48748C9.40925 7.81567 8.96413 8.00004 8.5 8.00004C8.03587 8.00004 7.59075 7.81567 7.26256 7.48748C6.93437 7.15929 6.75 6.71417 6.75 6.25004V3.75004ZM8.5 3.50004C8.4337 3.50004 8.37011 3.52638 8.32322 3.57326C8.27634 3.62015 8.25 3.68373 8.25 3.75004V6.25004C8.25 6.31634 8.27634 6.37993 8.32322 6.42682C8.37011 6.4737 8.4337 6.50004 8.5 6.50004C8.5663 6.50004 8.62989 6.4737 8.67678 6.42682C8.72366 6.37993 8.75 6.31634 8.75 6.25004V3.75004C8.75 3.68373 8.72366 3.62015 8.67678 3.57326C8.62989 3.52638 8.5663 3.50004 8.5 3.50004ZM9 9.00004C11.562 9.00004 14.835 9.27004 16.702 9.46004C17.161 9.50604 17.532 9.85604 17.606 10.322C17.784 11.46 18 13.264 18 14.958C18 16.739 17.762 19.131 17.579 20.628C17.519 21.118 17.137 21.497 16.656 21.545C14.782 21.735 11.541 22 9 22C6.46 22 3.218 21.735 1.344 21.545C1.10865 21.5199 0.888924 21.4152 0.721107 21.2483C0.55329 21.0814 0.447425 20.8622 0.421 20.627C0.238 19.131 0 16.74 0 14.958C0 13.264 0.216 11.46 0.394 10.322C0.42763 10.0983 0.534694 9.8921 0.698345 9.73587C0.861996 9.57964 1.07294 9.48226 1.298 9.45904C3.165 9.27004 6.438 9.00004 9 9.00004ZM8.75 19V11.5H10.25V13.575C10.4126 13.5251 10.5819 13.4998 10.752 13.5C11.084 13.5 11.384 13.598 11.628 13.783C11.862 13.961 12.002 14.186 12.086 14.38C12.2 14.6567 12.2558 14.9539 12.25 15.253V15.263V15.276V17.224V17.237V17.269C12.252 17.379 12.247 17.749 12.086 18.119C12.002 18.314 11.862 18.539 11.628 18.717C11.3754 18.9057 11.0673 19.0052 10.752 19C10.571 19 10.403 18.972 10.25 18.925V19H8.75ZM10.25 17.06V15.44C10.2937 15.3684 10.3429 15.3002 10.397 15.236C10.535 15.074 10.646 15.016 10.72 15.003C10.7399 15.0726 10.75 15.1447 10.75 15.217V15.238V15.276V17.224V17.262V17.283C10.75 17.3554 10.7399 17.4275 10.72 17.497C10.646 17.484 10.535 17.426 10.397 17.264C10.3426 17.2001 10.2935 17.1319 10.25 17.06ZM4.25 12.75H5V11.25H2V12.75H2.75V19H4.25V12.75ZM4.75 17.25V13.5H6.25V17.25C6.25 17.31 6.253 17.36 6.258 17.4C6.43937 17.2575 6.58862 17.0782 6.696 16.874C6.7186 16.8329 6.73639 16.7893 6.749 16.744L6.75 16.741V13.5H8.25V19H6.75V18.852C6.55634 18.9463 6.34434 18.9968 6.129 19H6.127H6.124H6.119H6.108C6.0779 18.9992 6.04787 18.9968 6.018 18.993C5.77308 18.9628 5.54125 18.8655 5.348 18.712C4.968 18.41 4.75 17.917 4.75 17.25ZM12.75 15.25C12.75 14.7859 12.9344 14.3408 13.2626 14.0126C13.5908 13.6844 14.0359 13.5 14.5 13.5C14.9641 13.5 15.4092 13.6844 15.7374 14.0126C16.0656 14.3408 16.25 14.7859 16.25 15.25V16.75H14.25V17.25C14.25 17.3163 14.2763 17.3799 14.3232 17.4268C14.3701 17.4737 14.4337 17.5 14.5 17.5C14.5663 17.5 14.6299 17.4737 14.6768 17.4268C14.7237 17.3799 14.75 17.3163 14.75 17.25H16.25C16.25 17.7142 16.0656 18.1593 15.7374 18.4875C15.4092 18.8157 14.9641 19 14.5 19C14.0359 19 13.5908 18.8157 13.2626 18.4875C12.9344 18.1593 12.75 17.7142 12.75 17.25V15.25ZM14.75 15.25C14.75 15.1837 14.7237 15.1201 14.6768 15.0733C14.6299 15.0264 14.5663 15 14.5 15C14.4337 15 14.3701 15.0264 14.3232 15.0733C14.2763 15.1201 14.25 15.1837 14.25 15.25H14.75Z" fill="#D4E2FF"/>
</svg>
