<svg width="24" height="22" viewBox="0 0 24 22" fill="none" xmlns="http://www.w3.org/2000/svg">
<path fill-rule="evenodd" clip-rule="evenodd" d="M13.4576 8.12244L20.9734 0.156738H23.465L23.4543 0.168498L14.5651 9.5925L22.7036 20.3943C22.9104 20.6687 22.9441 21.0365 22.7908 21.3441C22.6473 21.6319 22.363 21.8205 22.0455 21.8435H16.9491C16.6893 21.8247 16.449 21.6947 16.2909 21.485L10.564 13.8839L3.09204 21.8435H0.53418L9.4565 12.4138L1.31806 1.61205C1.11128 1.33761 1.07751 0.969818 1.23085 0.662308C1.38418 0.354788 1.69825 0.160448 2.04187 0.160448H7.0069C7.29145 0.160448 7.55948 0.294098 7.73071 0.521368L13.4576 8.12244ZM12.6948 10.1221C12.6691 10.0922 12.6457 10.061 12.6245 10.0287L6.55501 1.97297H3.85936L17.4666 20.0334H20.1623L12.6948 10.1221Z" fill="#D4E2FF"/>
</svg>
