<svg width="22" height="20" viewBox="0 0 22 20" fill="none" xmlns="http://www.w3.org/2000/svg">
<path d="M10.8752 18C10.9419 18 11.0086 17.9833 11.0752 17.95C11.1419 17.9167 11.1919 17.8833 11.2252 17.85L19.4252 9.65C19.6252 9.45 19.7711 9.225 19.8627 8.975C19.9544 8.725 20.0002 8.475 20.0002 8.225C20.0002 7.95833 19.9544 7.70417 19.8627 7.4625C19.7711 7.22083 19.6252 7.00833 19.4252 6.825L15.1752 2.575C14.9919 2.375 14.7794 2.22917 14.5377 2.1375C14.2961 2.04583 14.0419 2 13.7752 2C13.5252 2 13.2752 2.04583 13.0252 2.1375C12.7752 2.22917 12.5502 2.375 12.3502 2.575L12.0752 2.85L13.9252 4.725C14.1752 4.95833 14.3586 5.225 14.4752 5.525C14.5919 5.825 14.6502 6.14167 14.6502 6.475C14.6502 7.175 14.4127 7.7625 13.9377 8.2375C13.4627 8.7125 12.8752 8.95 12.1752 8.95C11.8419 8.95 11.5211 8.89167 11.2127 8.775C10.9044 8.65833 10.6336 8.48333 10.4002 8.25L8.52523 6.4L4.15023 10.775C4.10023 10.825 4.06273 10.8792 4.03773 10.9375C4.01273 10.9958 4.00023 11.0583 4.00023 11.125C4.00023 11.2583 4.05023 11.3792 4.15023 11.4875C4.25023 11.5958 4.3669 11.65 4.50023 11.65C4.5669 11.65 4.63357 11.6333 4.70023 11.6C4.7669 11.5667 4.8169 11.5333 4.85023 11.5L8.25023 8.1L9.65023 9.5L6.27523 12.9C6.22523 12.95 6.18773 13.0042 6.16273 13.0625C6.13773 13.1208 6.12523 13.1833 6.12523 13.25C6.12523 13.3833 6.17523 13.5 6.27523 13.6C6.37523 13.7 6.4919 13.75 6.62523 13.75C6.6919 13.75 6.75857 13.7333 6.82523 13.7C6.8919 13.6667 6.9419 13.6333 6.97523 13.6L10.3752 10.225L11.7752 11.625L8.40023 15.025C8.35023 15.0583 8.31273 15.1083 8.28773 15.175C8.26273 15.2417 8.25023 15.3083 8.25023 15.375C8.25023 15.5083 8.30023 15.625 8.40023 15.725C8.50023 15.825 8.6169 15.875 8.75023 15.875C8.8169 15.875 8.8794 15.8625 8.93773 15.8375C8.99607 15.8125 9.05023 15.775 9.10023 15.725L12.5002 12.35L13.9002 13.75L10.5002 17.15C10.4502 17.2 10.4127 17.2542 10.3877 17.3125C10.3627 17.3708 10.3502 17.4333 10.3502 17.5C10.3502 17.6333 10.4044 17.75 10.5127 17.85C10.6211 17.95 10.7419 18 10.8752 18ZM10.8502 20C10.2336 20 9.68773 19.7958 9.21273 19.3875C8.73773 18.9792 8.45857 18.4667 8.37523 17.85C7.80857 17.7667 7.33357 17.5333 6.95023 17.15C6.5669 16.7667 6.33357 16.2917 6.25023 15.725C5.68357 15.6417 5.21273 15.4042 4.83773 15.0125C4.46273 14.6208 4.23357 14.15 4.15023 13.6C3.5169 13.5167 3.00023 13.2417 2.60023 12.775C2.20023 12.3083 2.00023 11.7583 2.00023 11.125C2.00023 10.7917 2.06273 10.4708 2.18773 10.1625C2.31273 9.85417 2.4919 9.58333 2.72523 9.35L8.52523 3.575L11.8002 6.85C11.8336 6.9 11.8836 6.9375 11.9502 6.9625C12.0169 6.9875 12.0836 7 12.1502 7C12.3002 7 12.4252 6.95417 12.5252 6.8625C12.6252 6.77083 12.6752 6.65 12.6752 6.5C12.6752 6.43333 12.6627 6.36667 12.6377 6.3C12.6127 6.23333 12.5752 6.18333 12.5252 6.15L8.95023 2.575C8.7669 2.375 8.5544 2.22917 8.31273 2.1375C8.07107 2.04583 7.8169 2 7.55023 2C7.30023 2 7.05023 2.04583 6.80023 2.1375C6.55023 2.22917 6.32523 2.375 6.12523 2.575L2.60023 6.125C2.45023 6.275 2.32523 6.45 2.22523 6.65C2.12523 6.85 2.05857 7.05 2.02523 7.25C1.9919 7.45 1.9919 7.65417 2.02523 7.8625C2.05857 8.07083 2.12523 8.26667 2.22523 8.45L0.775234 9.9C0.491901 9.51667 0.283568 9.09583 0.150234 8.6375C0.016901 8.17917 -0.033099 7.71667 0.000234376 7.25C0.0335677 6.78333 0.150234 6.32917 0.350234 5.8875C0.550234 5.44583 0.825234 5.05 1.17523 4.7L4.70023 1.175C5.10023 0.791667 5.54607 0.5 6.03773 0.3C6.5294 0.1 7.03357 0 7.55023 0C8.0669 0 8.57107 0.1 9.06273 0.3C9.5544 0.5 9.9919 0.791667 10.3752 1.175L10.6502 1.45L10.9252 1.175C11.3252 0.791667 11.7711 0.5 12.2627 0.3C12.7544 0.1 13.2586 0 13.7752 0C14.2919 0 14.7961 0.1 15.2877 0.3C15.7794 0.5 16.2169 0.791667 16.6002 1.175L20.8252 5.4C21.2086 5.78333 21.5002 6.225 21.7002 6.725C21.9002 7.225 22.0002 7.73333 22.0002 8.25C22.0002 8.76667 21.9002 9.27083 21.7002 9.7625C21.5002 10.2542 21.2086 10.6917 20.8252 11.075L12.6252 19.25C12.3919 19.4833 12.1211 19.6667 11.8127 19.8C11.5044 19.9333 11.1836 20 10.8502 20Z" fill="#062259"/>
</svg>
