<svg width="24" height="16" viewBox="0 0 24 16" fill="none" xmlns="http://www.w3.org/2000/svg">
<path d="M6 15.75C4.26667 15.3 2.83333 14.3667 1.7 12.95C0.566667 11.5333 0 9.88333 0 8C0 6.11667 0.566667 4.46667 1.7 3.05C2.83333 1.63333 4.26667 0.7 6 0.25V2.35C4.81667 2.75 3.85417 3.46667 3.1125 4.5C2.37083 5.53333 2 6.7 2 8C2 9.3 2.37083 10.4667 3.1125 11.5C3.85417 12.5333 4.81667 13.25 6 13.65V15.75ZM14 16C11.7833 16 9.89583 15.2208 8.3375 13.6625C6.77917 12.1042 6 10.2167 6 8C6 5.78333 6.77917 3.89583 8.3375 2.3375C9.89583 0.779167 11.7833 0 14 0C15.1 0 16.1333 0.208333 17.1 0.625C18.0667 1.04167 18.9167 1.61667 19.65 2.35L18.25 3.75C17.7 3.2 17.0625 2.77083 16.3375 2.4625C15.6125 2.15417 14.8333 2 14 2C12.3333 2 10.9167 2.58333 9.75 3.75C8.58333 4.91667 8 6.33333 8 8C8 9.66667 8.58333 11.0833 9.75 12.25C10.9167 13.4167 12.3333 14 14 14C14.8333 14 15.6125 13.8458 16.3375 13.5375C17.0625 13.2292 17.7 12.8 18.25 12.25L19.65 13.65C18.9167 14.3833 18.0667 14.9583 17.1 15.375C16.1333 15.7917 15.1 16 14 16ZM20 12L18.6 10.6L20.2 9H13V7H20.2L18.6 5.4L20 4L24 8L20 12Z" fill="#062259"/>
</svg>
