<svg width="24" height="24" viewBox="0 0 24 24" fill="none" xmlns="http://www.w3.org/2000/svg">
<path fill-rule="evenodd" clip-rule="evenodd" d="M7.5 0.75C5.70979 0.75 3.9929 1.46116 2.72703 2.72703C1.46116 3.9929 0.75 5.70979 0.75 7.5V16.5C0.75 18.2902 1.46116 20.0071 2.72703 21.273C3.9929 22.5388 5.70979 23.25 7.5 23.25H16.5C18.2902 23.25 20.0071 22.5388 21.273 21.273C22.5388 20.0071 23.25 18.2902 23.25 16.5V7.5C23.25 5.70979 22.5388 3.9929 21.273 2.72703C20.0071 1.46116 18.2902 0.75 16.5 0.75H7.5ZM2.25 7.5C2.25 4.6 4.6 2.25 7.5 2.25H16.5C19.4 2.25 21.75 4.6 21.75 7.5V16.5C21.75 19.4 19.4 21.75 16.5 21.75H7.5C6.10761 21.75 4.77226 21.1969 3.78769 20.2123C2.80312 19.2277 2.25 17.8924 2.25 16.5V7.5ZM19.5 6.25C19.5 6.58152 19.3683 6.89946 19.1339 7.13388C18.8995 7.3683 18.5815 7.5 18.25 7.5C17.9185 7.5 17.6005 7.3683 17.3661 7.13388C17.1317 6.89946 17 6.58152 17 6.25C17 5.91848 17.1317 5.60054 17.3661 5.36612C17.6005 5.1317 17.9185 5 18.25 5C18.5815 5 18.8995 5.1317 19.1339 5.36612C19.3683 5.60054 19.5 5.91848 19.5 6.25ZM12 7.75C11.4419 7.75 10.8892 7.85993 10.3736 8.07351C9.85796 8.28709 9.38944 8.60015 8.9948 8.9948C8.60015 9.38944 8.28709 9.85796 8.07351 10.3736C7.85993 10.8892 7.75 11.4419 7.75 12C7.75 12.5581 7.85993 13.1108 8.07351 13.6264C8.28709 14.142 8.60015 14.6106 8.9948 15.0052C9.38944 15.3999 9.85796 15.7129 10.3736 15.9265C10.8892 16.1401 11.4419 16.25 12 16.25C13.1272 16.25 14.2082 15.8022 15.0052 15.0052C15.8022 14.2082 16.25 13.1272 16.25 12C16.25 10.8728 15.8022 9.79183 15.0052 8.9948C14.2082 8.19777 13.1272 7.75 12 7.75ZM6.25 12C6.25 10.475 6.8558 9.01247 7.93414 7.93414C9.01247 6.8558 10.475 6.25 12 6.25C13.525 6.25 14.9875 6.8558 16.0659 7.93414C17.1442 9.01247 17.75 10.475 17.75 12C17.75 13.525 17.1442 14.9875 16.0659 16.0659C14.9875 17.1442 13.525 17.75 12 17.75C10.475 17.75 9.01247 17.1442 7.93414 16.0659C6.8558 14.9875 6.25 13.525 6.25 12Z" fill="#D4E2FF"/>
</svg>
