<svg width="24" height="24" viewBox="0 0 20 19" fill="none" xmlns="http://www.w3.org/2000/svg">
<g id="Group">
<path id="Vector" d="M19.3613 9.26641C19.3613 14.3821 15.2142 18.5293 10.0984 18.5293C4.98271 18.5293 0.835594 14.3821 0.835594 9.26641C0.835594 4.15068 4.98271 0.00356226 10.0984 0.00356226C15.2142 0.00356226 19.3613 4.15068 19.3613 9.26641Z" fill="#000" stroke="white" stroke-width="0.00712452"></path>
<g id="Group_2">
<path id="Vector_2" d="M12.4278 10.4912C12.4278 9.26109 11.6865 8.83947 10.2038 8.66341C9.14514 8.52268 8.93375 8.24179 8.93375 7.74951C8.93375 7.25723 9.28703 6.94102 9.99244 6.94102C10.6278 6.94102 10.981 7.15183 11.1571 7.67943C11.1755 7.73045 11.209 7.77462 11.2532 7.806C11.2974 7.83737 11.3502 7.85445 11.4044 7.85492H11.9691C12.0017 7.85579 12.0341 7.85002 12.0645 7.83798C12.0948 7.82593 12.1223 7.80785 12.1455 7.78484C12.1686 7.76182 12.1868 7.73435 12.199 7.70408C12.2112 7.67382 12.2171 7.6414 12.2164 7.60878V7.57403C12.1474 7.19231 11.9542 6.84407 11.667 6.5834C11.3797 6.32273 11.0144 6.16423 10.6278 6.13252V5.28928C10.6278 5.14855 10.5218 5.04314 10.3457 5.00781H9.8158C9.67506 5.00781 9.56908 5.11322 9.53375 5.28928V6.09777C8.47448 6.23793 7.80441 6.94102 7.80441 7.82017C7.80441 8.97963 8.50981 9.43658 9.99244 9.61264C10.981 9.78812 11.2984 9.99951 11.2984 10.5619C11.2984 11.1236 10.8044 11.5105 10.1338 11.5105C9.2158 11.5105 8.89842 11.1242 8.79244 10.5966C8.75769 10.4565 8.65112 10.3858 8.54514 10.3858H7.94514C7.91257 10.385 7.88019 10.3908 7.84993 10.4029C7.81968 10.415 7.79219 10.4331 7.76913 10.4561C7.74607 10.4791 7.72791 10.5066 7.71576 10.5368C7.70361 10.567 7.69771 10.5994 7.69842 10.6319V10.6667C7.83916 11.5458 8.40441 12.1783 9.56908 12.3543V13.1982C9.56908 13.3383 9.67506 13.4443 9.85113 13.479H10.381C10.5218 13.479 10.6278 13.3736 10.6631 13.1982V12.3538C11.7224 12.1783 12.4278 11.4399 12.4278 10.4906V10.4912Z" fill="white"></path>
<path id="Vector_3" d="M8.29853 14.1818C5.54525 13.1973 4.13328 10.1393 5.15722 7.43297C5.68656 5.95614 6.85123 4.832 8.29853 4.3044C8.43984 4.23432 8.50992 4.12892 8.50992 3.95285V3.46058C8.50992 3.32042 8.43984 3.21502 8.29853 3.17969C8.2632 3.17969 8.19254 3.17969 8.15722 3.21444C7.36287 3.4625 6.62544 3.86524 5.98738 4.39948C5.34933 4.93371 4.82325 5.58888 4.43944 6.32727C4.05563 7.06566 3.82168 7.87267 3.75104 8.70184C3.68041 9.53102 3.77449 10.366 4.02787 11.1586C4.66262 13.1278 6.18057 14.6393 8.15722 15.2718C8.29853 15.3418 8.43984 15.2718 8.47459 15.131C8.50992 15.0963 8.50992 15.0604 8.50992 14.9903V14.498C8.50992 14.3926 8.40451 14.2525 8.29853 14.1818V14.1818ZM12.0398 3.21502C11.8985 3.14436 11.7572 3.21502 11.7225 3.35517C11.6871 3.3905 11.6871 3.42583 11.6871 3.4959V3.98818C11.6871 4.12892 11.7925 4.26907 11.8985 4.33973C14.6518 5.32428 16.0638 8.3822 15.0398 11.0886C14.5105 12.5654 13.3458 13.6895 11.8985 14.2171C11.7572 14.2872 11.6871 14.3926 11.6871 14.5687V15.061C11.6871 15.2011 11.7572 15.3065 11.8985 15.3418C11.9339 15.3418 12.0045 15.3418 12.0398 15.3071C12.8342 15.059 13.5716 14.6563 14.2097 14.1221C14.8477 13.5878 15.3738 12.9327 15.7576 12.1943C16.1414 11.4559 16.3754 10.6489 16.446 9.81969C16.5166 8.99052 16.4226 8.15556 16.1692 7.36289C15.5344 5.35903 13.9812 3.84745 12.0398 3.21502V3.21502Z" fill="white"></path>
</g>
</g>
</svg>