<svg width="24" height="24" viewBox="0 0 19 19" fill="none" xmlns="http://www.w3.org/2000/svg">
<g id="Group">
<path id="Vector" d="M18.3668 9.26641C18.3668 14.2562 14.3218 18.3012 9.33208 18.3012C4.34233 18.3012 0.297334 14.2562 0.297334 9.26641C0.297334 4.27665 4.34233 0.23166 9.33208 0.23166C14.3218 0.23166 18.3668 4.27665 18.3668 9.26641Z" fill="#000" stroke="white" stroke-width="0.46332"></path>
<path id="Vector_2" fill-rule="evenodd" clip-rule="evenodd" d="M10.4452 10.0702V10.0691C10.3815 10.0737 10.0532 10.0934 9.32053 10.0934C8.73559 10.0934 8.32381 10.076 8.17903 10.0691V10.0708C5.92729 9.97179 4.24659 9.57971 4.24659 9.11059C4.24659 8.64206 5.92729 8.24998 8.17903 8.1492V9.68048C8.32613 9.6909 8.74775 9.71581 9.33038 9.71581C10.0294 9.71581 10.3798 9.68685 10.4452 9.68106V8.15036C12.6923 8.25055 14.369 8.64264 14.369 9.11059C14.369 9.57971 12.6923 9.97063 10.4452 10.0702V10.0702ZM10.4452 7.9911V6.62083H13.5808V4.53125H5.04351V6.62083H8.17903V7.99052C5.63076 8.1075 3.71436 8.61252 3.71436 9.21716C3.71436 9.82179 5.63076 10.3262 8.17903 10.4438V14.8349H10.4452V10.4426C12.9895 10.3257 14.9012 9.82121 14.9012 9.21716C14.9012 8.6131 12.9895 8.10866 10.4452 7.9911" fill="white"></path>
</g>
</svg>